<svg width="18" height="20" viewBox="0 0 18 20" fill="none" xmlns="http://www.w3.org/2000/svg">
<path d="M16.7407 13.1301C16.3685 12.0766 16.1783 10.9748 16.1772 9.86566V7.12521C16.2043 5.38875 15.5395 3.70464 14.3114 2.39869C13.0875 1.09068 11.3888 0.249662 9.54091 0.0368007C8.51972 -0.0619543 7.48088 0.0368007 6.495 0.348153C5.50913 0.643046 4.61154 1.13545 3.85521 1.79244C3.09511 2.43249 2.48928 3.21553 2.07769 4.08987C1.66406 4.96387 1.44817 5.90798 1.4435 6.86324V9.88075C1.44134 10.9853 1.25112 12.0825 0.87993 13.1314L0 15.5578L0.704827 16.4603H5.86228C5.86228 17.1818 6.17864 17.8868 6.72455 18.397C7.26899 18.9045 8.02679 19.2007 8.80224 19.2007C9.57623 19.2007 10.3326 18.9059 10.8785 18.397C11.4244 17.8881 11.7422 17.1818 11.7422 16.4603H16.8997L17.603 15.5578L16.7407 13.1301ZM9.83962 17.4465C9.70424 17.5752 9.54289 17.6777 9.36486 17.7481C9.18683 17.8185 8.99562 17.8553 8.80224 17.8566C8.60851 17.8553 8.41697 17.8183 8.23867 17.7477C8.06036 17.6771 7.89883 17.5742 7.7634 17.4451C7.62504 17.319 7.51481 17.1687 7.43905 17.0027C7.36329 16.8368 7.3235 16.6585 7.32196 16.4781H10.2634C10.2695 16.6581 10.2351 16.8372 10.1624 17.004C10.0896 17.1708 9.98019 17.3216 9.84109 17.4465H9.83962ZM1.72455 15.101L2.27046 13.5731C2.69617 12.3827 2.9162 11.1369 2.92231 9.88212V6.86324C2.92231 6.09103 3.09888 5.33665 3.4329 4.64674C3.76693 3.94174 4.2422 3.31766 4.85874 2.8088C5.47528 2.28485 6.19777 1.88983 6.97175 1.66077C7.7634 1.41388 8.59035 1.33159 9.39965 1.41388C10.8829 1.59568 12.2428 2.27904 13.221 3.33412C14.1995 4.39051 14.7255 5.74624 14.6984 7.14167V9.89858C14.6984 11.1454 14.9103 12.3921 15.3502 13.5895L15.8961 15.1161H1.72602V15.0997L1.72455 15.101Z" fill="#151614"/>
</svg>
